# 
# Wavefront OBJ file
# Converted by the DEEP Exploration Deep Exploration 6.5 x64 6.5.0.9182
# Right Hemisphere, LTD
# http://www.righthemisphere.com/
# 
mtllib White_Sea_Stone_convert.mtl
# object Stone_01_pivot
g Stone_01_pivot
v -1.86464 1.74171 2.15249
v 2.31287 0.28292 0.56171
v -1.03530 -2.38484 2.19795
v 2.41960 0.39970 1.83835
v 0.27299 -0.17137 0.02407
v 0.04256 0.00838 2.50951
v -1.87577 1.62762 0.50593
v -1.21611 -2.48035 1.00231
v -1.59439 1.84606 2.21222
v -1.66742 2.10523 2.04445
v -2.00695 1.85136 2.01617
v -2.21422 1.50053 2.01960
v -1.94452 1.47959 2.19921
v -1.60097 1.51401 2.31498
v 2.26224 0.03565 0.52723
v 2.03157 0.21060 0.41305
v 2.16500 0.48143 0.49725
v 2.45318 0.31837 0.66144
v 2.46490 -0.04422 0.66301
v 2.31887 0.65577 0.62007
v -0.80113 -2.36982 2.20378
v -0.92009 -2.12921 2.29439
v -1.19378 -2.20864 2.23850
v -1.09877 -2.50467 2.10599
v -0.77224 -2.56153 2.07699
v -1.38298 -2.31104 2.12094
v 2.34865 0.16763 1.91211
v 2.53236 0.03806 1.74399
v 2.54647 0.40168 1.70350
v 2.28549 0.63579 1.89271
v 2.12883 0.40292 2.03158
v 2.42867 0.76771 1.71384
v 0.43401 -0.36034 0.05843
v 0.17554 -0.52901 0.05187
v 0.05209 -0.21645 0.00833
v 0.02229 0.11366 -0.00950
v 0.33216 0.05796 0.02027
v 0.61663 -0.10667 0.06592
v 0.17117 -0.18870 2.49287
v 0.39144 0.02704 2.48458
v 0.13723 0.21893 2.50756
v -0.15700 0.30965 2.52537
v -0.17964 -0.00945 2.52296
v -0.10536 -0.32016 2.50531
v -1.61719 1.78233 0.45735
v -1.58629 1.46457 0.33724
v -1.92781 1.36365 0.44772
v -2.20758 1.37524 0.60957
v -2.02642 1.73720 0.63190
v -1.70997 2.04373 0.61354
v -1.23899 -2.57925 1.17245
v -1.51149 -2.38939 1.13834
v -1.37857 -2.31260 0.91135
v -1.14515 -2.24001 0.71872
v -1.00664 -2.47851 0.90255
v -0.93259 -2.64749 1.12040
v -0.57967 -2.61642 1.02899
v -0.50134 -2.72619 1.29299
v -0.88372 -2.74867 1.37444
v -1.24793 -2.66511 1.41605
v -0.68288 -2.42145 0.78340
v -0.30065 -2.31681 0.69097
v -0.19006 -2.52708 0.93737
v -0.82090 -2.14769 0.56552
v -0.44003 -2.02737 0.47333
v -0.03104 -1.88570 0.43027
v 0.11685 -2.18322 0.62577
v -0.98484 -1.80657 0.38955
v -0.59939 -1.67744 0.29639
v -0.19785 -1.53757 0.26834
v 0.20047 -1.38716 0.23788
v 0.38526 -1.72721 0.38358
v -0.76277 -1.29114 0.17305
v -0.36680 -1.15979 0.14987
v 0.01437 -1.02453 0.12917
v 0.36327 -0.85735 0.12009
v 0.57648 -1.19412 0.21733
v -0.51897 -0.76950 0.07353
v -0.15101 -0.65648 0.05472
v -0.63287 -0.37095 0.03232
v -0.26911 -0.28581 0.00596
v -0.70184 0.03698 0.00143
v -0.32658 0.09757 -0.01582
v -0.72848 0.45543 0.01377
v -0.33284 0.49869 -0.00783
v 0.05094 0.48243 0.00343
v 0.41712 0.39189 0.03432
v -0.30741 0.91108 0.04141
v 0.10965 0.87466 0.05904
v 0.51342 0.76413 0.09436
v 0.90001 0.58663 0.11783
v 0.76275 0.22070 0.08789
v 0.18317 1.27139 0.15256
v 0.62168 1.14667 0.17510
v 1.03698 0.95658 0.20061
v 1.41649 0.71626 0.23994
v 1.25931 0.35410 0.16902
v 0.73507 1.50965 0.30382
v 1.17792 1.30285 0.32197
v 1.57525 1.04407 0.35758
v 1.90958 0.75767 0.41839
v 1.74983 0.45370 0.31264
v 1.31501 1.60125 0.48432
v 1.72987 1.31636 0.51328
v 2.07058 0.99338 0.56193
v 1.86424 1.52265 0.70954
v 2.21473 1.16242 0.74631
v 2.47135 0.77187 0.78744
v 2.61401 0.35890 0.82119
v 2.31530 1.26776 0.97521
v 2.58068 0.84368 1.00188
v 2.72674 0.39023 1.03015
v 2.74602 -0.07735 1.05459
v 2.63663 -0.07300 0.83700
v 2.60616 0.86560 1.24916
v 2.75054 0.40553 1.26985
v 2.76281 -0.06418 1.29858
v 2.67936 0.40631 1.50452
v 2.68261 -0.03015 1.53591
v 2.56243 -0.46430 1.57437
v 2.65227 -0.52877 1.33163
v 2.64590 -0.54628 1.07782
v 2.43184 -0.97685 1.36555
v 2.43289 -1.00393 1.10558
v 2.34471 -0.96908 0.86200
v 2.54487 -0.52014 0.84550
v 2.17918 -0.87456 0.65965
v 2.37078 -0.44987 0.65371
v 1.95814 -0.72321 0.49654
v 2.14567 -0.32527 0.50069
v 1.69826 -0.51789 0.35485
v 1.88416 -0.13780 0.36777
v 1.40747 -0.27137 0.23511
v 1.58824 0.09952 0.25266
v 1.09510 -0.01239 0.14018
v 1.18570 -0.62585 0.23207
v 0.90287 -0.35142 0.13191
v 0.91015 -0.94004 0.21643
v 0.66266 -0.63646 0.12330
v 1.45530 -0.89156 0.35437
v 1.15189 -1.23371 0.34419
v 0.78853 -1.51537 0.35103
v 1.37044 -1.48851 0.50175
v 0.97940 -1.79207 0.52293
v 0.55002 -2.01770 0.56824
v 1.13732 -2.00525 0.72621
v 0.68552 -2.23922 0.78505
v 0.23540 -2.40402 0.85686
v 0.78773 -2.37406 1.03505
v 0.32925 -2.53374 1.11477
v -0.10128 -2.63627 1.20504
v 0.39344 -2.56344 1.38692
v -0.03409 -2.67886 1.47399
v -0.44176 -2.74710 1.56221
v 0.00016 -2.60553 1.73872
v -0.40495 -2.67355 1.81340
v -0.79557 -2.70877 1.88540
v -0.83903 -2.77260 1.63852
v -1.17329 -2.62791 1.92596
v -1.22672 -2.68623 1.68121
v -1.51410 -2.40974 1.92672
v -1.58117 -2.46248 1.67317
v -1.58033 -2.45304 1.39944
v -1.89127 -2.14288 1.62925
v -1.88021 -2.14729 1.33540
v -1.77813 -2.10169 1.05034
v -1.59356 -2.02313 0.78680
v -2.14701 -1.77494 1.25692
v -2.02233 -1.73561 0.95005
v -1.80478 -1.65534 0.67320
v -1.51016 -1.54725 0.43686
v -1.32580 -1.92358 0.55872
v -2.23104 -1.31646 0.86735
v -1.99084 -1.23989 0.58416
v -1.67437 -1.13389 0.35194
v -1.30539 -1.01252 0.18446
v -1.15384 -1.42184 0.26370
v -2.13369 -0.79587 0.53065
v -1.80202 -0.70000 0.30175
v -1.42244 -0.58827 0.14300
v -1.02369 -0.47445 0.06083
v -0.91033 -0.88772 0.09895
v -1.88606 -0.25932 0.28785
v -1.49791 -0.15756 0.13588
v -1.09593 -0.05312 0.04683
v -1.54056 0.26986 0.15362
v -1.13048 0.37078 0.07578
v -1.56498 0.68814 0.18603
v -1.15024 0.79476 0.09521
v -0.72847 0.87888 0.05336
v -1.15777 1.20748 0.17366
v -0.71843 1.29790 0.13491
v -0.26725 1.32262 0.13494
v -0.70916 1.70083 0.25604
v -0.22340 1.71761 0.26643
v 0.26229 1.64858 0.29229
v -0.18198 2.07787 0.43177
v 0.34217 1.99432 0.44906
v 0.84708 1.83191 0.46579
v 0.41525 2.28380 0.64763
v 0.94760 2.09627 0.66485
v 1.43497 1.83664 0.68462
v 1.02249 2.27927 0.91412
v 1.51859 1.99166 0.93314
v 1.95782 1.65530 0.94989
v 1.55370 2.05275 1.21864
v 1.98864 1.69903 1.22617
v 2.34576 1.30174 1.23694
v 1.95191 1.65342 1.51135
v 2.29885 1.26060 1.50244
v 2.54633 0.83913 1.49549
v 2.18927 1.14889 1.74260
v 1.85624 1.52194 1.76958
v 1.70902 1.31036 1.98430
v 2.03748 0.96623 1.94720
v 1.52574 1.03177 2.15448
v 1.85400 0.70943 2.10711
v 1.32505 0.70964 2.28208
v 1.64352 0.39699 2.21238
v 1.93237 0.09161 2.12675
v 1.41859 0.06217 2.29521
v 1.70731 -0.24616 2.18983
v 1.96170 -0.51787 2.02095
v 2.18981 -0.16366 1.98120
v 2.17947 -0.73516 1.83126
v 2.40087 -0.34722 1.79191
v 2.34141 -0.88645 1.60951
v 1.89136 -1.10490 1.86723
v 2.04400 -1.28654 1.64826
v 2.12723 -1.40270 1.40568
v 1.68536 -1.65085 1.70065
v 1.75944 -1.79306 1.45642
v 1.76193 -1.84978 1.18441
v 2.13236 -1.44387 1.14160
v 1.68840 -1.81030 0.91870
v 2.05398 -1.40690 0.88649
v 1.55269 -1.68443 0.69014
v 1.90258 -1.29532 0.67281
v 1.69836 -1.12044 0.50103
v 1.25391 -2.13754 0.96815
v 1.32082 -2.17313 1.24022
v 0.85001 -2.40325 1.30818
v 1.32617 -2.10308 1.51200
v 0.86654 -2.32678 1.57670
v 0.42233 -2.49282 1.65521
v 0.83295 -2.16153 1.81575
v 0.40598 -2.33205 1.89680
v -0.00687 -2.45481 1.97456
v 0.33628 -2.10121 2.09942
v -0.06951 -2.23084 2.16643
v -0.45702 -2.32020 2.20286
v -0.40134 -2.53701 2.03758
v -0.19008 -1.94923 2.31245
v -0.57545 -2.05206 2.32718
v -0.35379 -1.62324 2.41555
v -0.74066 -1.73031 2.41133
v -1.09639 -1.81989 2.35684
v -1.40490 -1.91156 2.27120
v -0.91695 -1.36513 2.46680
v -1.28407 -1.45565 2.40097
v -1.61514 -1.54728 2.29749
v -1.88576 -1.63744 2.12257
v -1.64662 -2.00670 2.12253
v -1.44936 -1.05332 2.43519
v -1.79492 -1.13904 2.31657
v -2.08588 -1.22429 2.12152
v -2.29251 -1.29745 1.85205
v -2.07460 -1.71547 1.87459
v -1.93025 -0.70170 2.32757
v -2.23715 -0.78059 2.11817
v -2.45668 -0.84761 1.83633
v -2.56128 -0.88961 1.50004
v -2.39296 -1.34491 1.53006
v -2.33910 -0.31933 2.11069
v -2.56733 -0.37883 1.82547
v -2.67392 -0.41690 1.48474
v -2.65205 -0.42612 1.12901
v -2.53874 -0.89688 1.14772
v -2.62952 0.10003 1.81355
v -2.74400 0.06384 1.47818
v -2.72325 0.04890 1.12580
v -2.56279 0.06088 0.79640
v -2.49622 -0.40121 0.79624
v -2.76281 0.55394 1.47270
v -2.74698 0.53061 1.12900
v -2.58893 0.52207 0.80751
v -2.31574 0.53998 0.53682
v -2.29010 0.10254 0.51569
v -2.70340 1.02302 1.13423
v -2.55704 0.98615 0.82370
v -2.29587 0.96783 0.57014
v -1.95925 0.99891 0.38200
v -1.95924 0.59485 0.33425
v -2.43729 1.44872 0.84019
v -2.56846 1.52403 1.13907
v -2.30527 2.00554 1.14221
v -2.19938 1.88825 0.84720
v -1.88103 2.40273 1.14999
v -1.81794 2.26316 0.84434
v -1.30214 2.51763 0.85219
v -1.25154 2.27269 0.60584
v -1.32832 2.66112 1.16409
v -0.71561 2.77260 1.17850
v -0.71655 2.63588 0.86601
v -1.86459 2.41832 1.49040
v -1.31458 2.66529 1.50786
v -0.70606 2.76502 1.52108
v -0.09068 2.72239 1.52516
v -0.09414 2.74294 1.19054
v -1.26583 2.52277 1.82464
v -0.69205 2.60865 1.84085
v -0.10570 2.56264 1.83827
v 0.45667 2.40215 1.81927
v 0.49368 2.55063 1.51771
v -0.68510 2.33454 2.10065
v -0.14144 2.29183 2.09855
v 0.38458 2.14418 2.07369
v 0.87193 1.91251 2.03535
v 0.97531 2.15786 1.79833
v -0.20031 1.93967 2.29219
v 0.28740 1.81217 2.27060
v 0.74241 1.60454 2.23447
v 1.15691 1.33783 2.19164
v 1.31954 1.63467 2.01554
v 0.16816 1.43170 2.39801
v 0.58991 1.24832 2.36923
v 0.97630 1.00176 2.33164
v 0.42969 0.88001 2.45181
v 0.78627 0.65163 2.41826
v 1.11326 0.37108 2.36763
v 0.59181 0.31744 2.46384
v 0.88871 0.04516 2.41956
v 1.17322 -0.26187 2.34626
v 0.64177 -0.24292 2.44401
v 0.89441 -0.55205 2.37379
v 1.14146 -0.87141 2.25986
v 1.44394 -0.57518 2.22773
v 1.36611 -1.17539 2.10113
v 1.68792 -0.86433 2.06290
v 1.55099 -1.44018 1.91012
v 1.00269 -1.43720 2.14583
v 1.16363 -1.71822 1.96502
v 1.27280 -1.94523 1.75591
v 0.75094 -1.93361 2.02683
v 0.61266 -1.64745 2.20054
v 0.21105 -1.81504 2.26073
v 0.43114 -1.32530 2.33334
v 0.04194 -1.48922 2.37826
v 0.23123 -0.98769 2.42173
v -0.14329 -1.14056 2.45533
v -0.53130 -1.26364 2.47963
v -0.31291 -0.77892 2.49971
v -0.68994 -0.88158 2.51849
v -1.07324 -0.96909 2.50180
v -0.80640 -0.48543 2.54059
v -1.19015 -0.55428 2.52540
v -1.57258 -0.62545 2.45968
v -1.25948 -0.12934 2.52947
v -1.65056 -0.18585 2.46105
v -2.01740 -0.25009 2.31728
v -1.68587 0.25586 2.44955
v -2.06918 0.20326 2.30897
v -2.39548 0.14972 2.09945
v -2.06572 0.65681 2.28469
v -2.38890 0.61963 2.06811
v -2.63409 0.58427 1.79503
v -2.33863 1.07780 2.04602
v -2.57929 1.06963 1.78189
v -2.70536 1.05251 1.46641
v -2.43252 1.54219 1.77417
v -2.55371 1.55146 1.46575
v -2.17280 1.96808 1.78028
v -2.29024 2.03190 1.47593
v -1.77801 2.30669 1.80137
v -1.20924 2.26983 2.07961
v -1.17735 1.94275 2.26634
v -0.69816 1.97996 2.29084
v -1.18762 1.56240 2.38595
v -0.73821 1.58011 2.41559
v -0.27985 1.54155 2.41645
v -0.79616 1.16195 2.48613
v -0.36904 1.13151 2.48888
v 0.04261 1.04062 2.47340
v -0.45009 0.72784 2.52667
v -0.07220 0.66217 2.51346
v 0.27468 0.52788 2.49295
v -0.50171 0.33733 2.54118
v -0.88183 0.32871 2.54088
v -0.87003 -0.08071 2.54869
v -0.50285 -0.04042 2.54094
v -0.85142 0.74305 2.52360
v -1.22669 1.15037 2.45408
v -1.26657 0.72638 2.49438
v -1.28246 0.29892 2.51978
v -1.67978 0.69419 2.42217
v -1.64357 1.11954 2.37989
v -2.02024 1.09093 2.24433
v -0.43893 -0.41117 2.52571
v 0.04255 -0.64884 2.47530
v 0.36217 -0.47514 2.45689
v 0.57982 -0.79450 2.39518
v 0.80133 -1.12192 2.29267
v 1.44483 1.86031 1.78355
v 1.52661 2.00479 1.51389
v 1.03653 2.30704 1.51326
v 1.05542 2.35459 1.20844
v 0.50177 2.59215 1.20002
v 0.47236 2.49388 0.89837
v -0.11412 2.62077 0.88164
v -0.14477 2.38773 0.63057
v -0.71145 2.39024 0.61312
v -0.70688 2.07085 0.41491
v -1.20235 1.96227 0.42024
v -1.17123 1.60058 0.28110
v -1.57212 1.08836 0.26407
v -1.93672 0.17470 0.29973
v -2.22942 -0.34407 0.51129
v -2.38831 -0.86416 0.81720
v -2.37073 -1.35267 1.19030
v -2.16431 -1.76567 1.57531
v -1.81163 -2.09064 1.90193
# 421 verticies
vt 0.82896 0.82503
vt 0.84480 0.80306
vt 0.82981 0.80200
vt 0.81452 0.81231
vt 0.85129 0.78063
vt 0.82899 0.78874
vt 0.80601 0.79738
vt 0.50511 0.82129
vt 0.52183 0.81016
vt 0.50878 0.79522
vt 0.49304 0.80274
vt 0.56923 0.59259
vt 0.58212 0.55905
vt 0.55602 0.57653
vt 0.54698 0.59849
vt 0.53210 0.79210
vt 0.51241 0.77581
vt 0.74228 0.67181
vt 0.75391 0.66873
vt 0.74708 0.66217
vt 0.73759 0.66131
vt 0.73784 0.65230
vt 0.75002 0.65652
vt 0.76243 0.66300
vt 0.57368 0.68606
vt 0.56373 0.70909
vt 0.57383 0.71404
vt 0.58281 0.70315
vt 0.59376 0.72539
vt 0.58089 0.73405
vt 0.56943 0.74037
vt 0.76216 0.52751
vt 0.78179 0.52134
vt 0.76614 0.51373
vt 0.74712 0.51748
vt 0.79679 0.51235
vt 0.76857 0.50423
vt 0.73778 0.50511
vt 0.68297 0.74250
vt 0.69857 0.75373
vt 0.70249 0.74580
vt 0.69466 0.73597
vt 0.71621 0.76013
vt 0.71487 0.74666
vt 0.70962 0.73287
vt 0.95433 0.67924
vt 0.93550 0.68554
vt 0.94125 0.71369
vt 0.95648 0.72766
vt 0.92298 0.71044
vt 0.93072 0.73908
vt 0.94293 0.77082
vt 0.77970 0.63001
vt 0.78099 0.61939
vt 0.77018 0.62049
vt 0.76662 0.62686
vt 0.77779 0.60713
vt 0.76450 0.61297
vt 0.75606 0.62016
vt 0.73791 0.62105
vt 0.74890 0.62897
vt 0.74561 0.61251
vt 0.76237 0.63452
vt 0.75599 0.60274
vt 0.73383 0.60358
vt 0.74375 0.59362
vt 0.77011 0.59421
vt 0.75771 0.58251
vt 0.72718 0.58619
vt 0.74067 0.57432
vt 0.78766 0.58814
vt 0.77506 0.57460
vt 0.75782 0.56272
vt 0.72140 0.56685
vt 0.73855 0.55468
vt 0.79466 0.56974
vt 0.77750 0.55613
vt 0.75899 0.54429
vt 0.71941 0.54635
vt 0.74003 0.53573
vt 0.79849 0.55172
vt 0.78051 0.53846
vt 0.81985 0.54878
vt 0.80150 0.53358
vt 0.83951 0.54557
vt 0.82001 0.52698
vt 0.85889 0.53988
vt 0.83555 0.51681
vt 0.80668 0.49898
vt 0.77285 0.48959
vt 0.84926 0.50194
vt 0.81570 0.48175
vt 0.77763 0.47062
vt 0.73651 0.49010
vt 0.73761 0.47068
vt 0.82486 0.45969
vt 0.78301 0.44785
vt 0.73844 0.44693
vt 0.69817 0.48168
vt 0.69400 0.45852
vt 0.63094 0.91579
vt 0.59457 0.89167
vt 0.57928 0.90940
vt 0.61886 0.93563
vt 0.56384 0.86393
vt 0.54655 0.87786
vt 0.52200 0.84834
vt 0.54043 0.83461
vt 0.60523 0.87537
vt 0.57559 0.84851
vt 0.55110 0.81940
vt 0.58296 0.83683
vt 0.55836 0.80761
vt 0.53769 0.77634
vt 0.52005 0.74843
vt 0.56504 0.79723
vt 0.54438 0.76377
vt 0.52738 0.72415
vt 0.56264 0.61636
vt 0.53900 0.63257
vt 0.53599 0.66270
vt 0.56068 0.63656
vt 0.55143 0.75230
vt 0.53845 0.69728
vt 0.56036 0.65530
vt 0.55024 0.70130
vt 0.56546 0.66920
vt 0.58395 0.65295
vt 0.58192 0.63744
vt 0.58189 0.62132
vt 0.60301 0.62730
vt 0.60474 0.61247
vt 0.60810 0.59744
vt 0.58508 0.60418
vt 0.61371 0.58205
vt 0.59081 0.58562
vt 0.62299 0.56414
vt 0.60107 0.56188
vt 0.64050 0.54131
vt 0.62553 0.53084
vt 0.61372 0.51599
vt 0.66720 0.51871
vt 0.65986 0.50209
vt 0.65232 0.48150
vt 0.69996 0.50022
vt 0.68079 0.53062
vt 0.70764 0.51480
vt 0.69932 0.53847
vt 0.72215 0.52577
vt 0.65961 0.54895
vt 0.68093 0.55466
vt 0.70147 0.55958
vt 0.66705 0.57123
vt 0.68805 0.57539
vt 0.70831 0.57936
vt 0.68047 0.58749
vt 0.70035 0.59166
vt 0.71822 0.59635
vt 0.69442 0.60261
vt 0.71161 0.60736
vt 0.72589 0.61315
vt 0.70550 0.61827
vt 0.71940 0.62371
vt 0.73146 0.62970
vt 0.71410 0.63460
vt 0.72703 0.63933
vt 0.74016 0.64344
vt 0.74407 0.63608
vt 0.75416 0.64880
vt 0.75788 0.64246
vt 0.76854 0.65620
vt 0.77303 0.64867
vt 0.77664 0.64061
vt 0.78846 0.65404
vt 0.79265 0.64354
vt 0.79538 0.63227
vt 0.79618 0.61940
vt 0.80894 0.64796
vt 0.81223 0.63507
vt 0.81386 0.62044
vt 0.79449 0.60342
vt 0.81219 0.60405
vt 0.82959 0.64046
vt 0.83178 0.62464
vt 0.83139 0.60623
vt 0.80680 0.58566
vt 0.82584 0.58709
vt 0.85009 0.63070
vt 0.85023 0.61081
vt 0.84609 0.58902
vt 0.81529 0.56739
vt 0.83528 0.56816
vt 0.86947 0.61667
vt 0.86583 0.59228
vt 0.85621 0.56762
vt 0.88652 0.59704
vt 0.87658 0.56737
vt 0.90849 0.60568
vt 0.89733 0.56540
vt 0.87744 0.53020
vt 0.91704 0.55639
vt 0.89361 0.51193
vt 0.86254 0.48131
vt 0.74958 0.95084
vt 0.71111 0.94476
vt 0.70499 0.96921
vt 0.74421 0.97601
vt 0.67037 0.93425
vt 0.66201 0.95564
vt 0.71824 0.92453
vt 0.67829 0.91453
vt 0.63976 0.89848
vt 0.68401 0.89907
vt 0.64626 0.88382
vt 0.61218 0.86283
vt 0.65118 0.87172
vt 0.61808 0.85130
vt 0.58928 0.82638
vt 0.62366 0.84016
vt 0.59576 0.81602
vt 0.57164 0.78735
vt 0.60207 0.80582
vt 0.57890 0.77838
vt 0.55934 0.74547
vt 0.58628 0.76977
vt 0.60871 0.79578
vt 0.61658 0.78466
vt 0.59608 0.76030
vt 0.62633 0.77217
vt 0.60809 0.74966
vt 0.63743 0.75915
vt 0.62095 0.73792
vt 0.60652 0.71440
vt 0.63301 0.72635
vt 0.62040 0.70342
vt 0.61079 0.67964
vt 0.59571 0.69036
vt 0.60526 0.65795
vt 0.58811 0.66893
vt 0.60285 0.64227
vt 0.62377 0.65077
vt 0.62336 0.63558
vt 0.62408 0.62169
vt 0.64352 0.63304
vt 0.64578 0.62020
vt 0.64878 0.60779
vt 0.62673 0.60822
vt 0.65321 0.59582
vt 0.63072 0.59506
vt 0.65878 0.58394
vt 0.63627 0.58203
vt 0.64468 0.56753
vt 0.67463 0.59829
vt 0.67014 0.60967
vt 0.68895 0.61339
vt 0.66608 0.62115
vt 0.68446 0.62482
vt 0.70008 0.62954
vt 0.68067 0.63670
vt 0.69635 0.64161
vt 0.71054 0.64612
vt 0.69451 0.65464
vt 0.70989 0.65815
vt 0.72455 0.66032
vt 0.72439 0.64940
vt 0.71209 0.67155
vt 0.72791 0.67245
vt 0.71811 0.68679
vt 0.73508 0.68569
vt 0.75078 0.68369
vt 0.76392 0.67836
vt 0.74452 0.69954
vt 0.76120 0.69550
vt 0.77545 0.68952
vt 0.77440 0.67199
vt 0.78718 0.68099
vt 0.77128 0.70838
vt 0.78683 0.70073
vt 0.80019 0.69108
vt 0.79660 0.67116
vt 0.81067 0.67975
vt 0.79704 0.71333
vt 0.81160 0.70219
vt 0.82407 0.69003
vt 0.81896 0.66758
vt 0.83346 0.67721
vt 0.82225 0.71479
vt 0.83542 0.70190
vt 0.84681 0.68867
vt 0.84115 0.66320
vt 0.85558 0.67408
vt 0.84623 0.71546
vt 0.85792 0.70207
vt 0.86887 0.68745
vt 0.86286 0.65789
vt 0.87724 0.67084
vt 0.86845 0.71792
vt 0.87971 0.70352
vt 0.89030 0.68716
vt 0.88463 0.65047
vt 0.89864 0.66631
vt 0.88970 0.72367
vt 0.90022 0.70776
vt 0.91144 0.68619
vt 0.90661 0.63852
vt 0.92307 0.65791
vt 0.90950 0.73482
vt 0.89629 0.75076
vt 0.89668 0.78928
vt 0.91360 0.77100
vt 0.87581 0.84882
vt 0.90993 0.81470
vt 0.80861 0.90993
vt 0.83901 0.92142
vt 0.86162 0.88332
vt 0.81498 0.89176
vt 0.81916 0.87546
vt 0.77052 0.89600
vt 0.77264 0.88267
vt 0.85930 0.84132
vt 0.81487 0.86248
vt 0.77252 0.87005
vt 0.73094 0.88168
vt 0.73253 0.86901
vt 0.80870 0.85039
vt 0.77059 0.85693
vt 0.73331 0.85626
vt 0.69482 0.86167
vt 0.69753 0.84914
vt 0.76761 0.84262
vt 0.73351 0.84179
vt 0.70023 0.83511
vt 0.66441 0.83625
vt 0.66930 0.82277
vt 0.73342 0.82545
vt 0.70322 0.81907
vt 0.67467 0.80756
vt 0.64108 0.80584
vt 0.64902 0.79167
vt 0.70640 0.80278
vt 0.68073 0.79206
vt 0.65727 0.77728
vt 0.68694 0.77778
vt 0.66614 0.76378
vt 0.64788 0.74664
vt 0.67434 0.75217
vt 0.65892 0.73581
vt 0.64516 0.71649
vt 0.67020 0.72710
vt 0.65915 0.70927
vt 0.64984 0.68893
vt 0.63440 0.69450
vt 0.64420 0.66767
vt 0.62710 0.67198
vt 0.64222 0.64776
vt 0.66150 0.66607
vt 0.66109 0.64728
vt 0.66279 0.63329
vt 0.67814 0.65056
vt 0.67876 0.66770
vt 0.69517 0.67063
vt 0.68304 0.68630
vt 0.70056 0.68711
vt 0.69116 0.70348
vt 0.70901 0.70270
vt 0.72671 0.70192
vt 0.71865 0.71751
vt 0.73657 0.71609
vt 0.75397 0.71371
vt 0.74428 0.73089
vt 0.76245 0.72758
vt 0.78037 0.72207
vt 0.76916 0.74202
vt 0.78836 0.73590
vt 0.80662 0.72684
vt 0.79542 0.75033
vt 0.81537 0.74060
vt 0.83261 0.72879
vt 0.82280 0.75562
vt 0.84146 0.74403
vt 0.85660 0.73111
vt 0.84804 0.76136
vt 0.86418 0.74945
vt 0.87807 0.73743
vt 0.86839 0.77252
vt 0.88319 0.76338
vt 0.86422 0.80258
vt 0.88085 0.79934
vt 0.84485 0.83430
vt 0.80073 0.83754
vt 0.79061 0.82172
vt 0.76360 0.82646
vt 0.78364 0.80458
vt 0.75972 0.80860
vt 0.73350 0.80865
vt 0.75768 0.79127
vt 0.73425 0.79193
vt 0.71027 0.78762
vt 0.73511 0.77623
vt 0.71388 0.77331
vt 0.69320 0.76527
vt 0.73463 0.76162
vt 0.75002 0.74555
vt 0.73170 0.74691
vt 0.75407 0.76018
vt 0.75671 0.77544
vt 0.78117 0.78732
vt 0.77878 0.77157
vt 0.77465 0.75684
vt 0.80142 0.76525
vt 0.80454 0.78086
vt 0.82778 0.77219
vt 0.72654 0.73212
vt 0.70074 0.71919
vt 0.68442 0.72141
vt 0.67419 0.70512
vt 0.66598 0.68595
vt 0.63475 0.81825
vt 0.62927 0.82924
vt 0.66003 0.84812
vt 0.65579 0.85984
vt 0.69174 0.87408
vt 0.68834 0.88631
vt 0.72828 0.89469
vt 0.72431 0.90781
vt 0.76629 0.91084
vt 0.75834 0.92905
vt 0.79727 0.93195
vt 0.78249 0.95916
vt 0.80837 0.97190
vt 0.81992 0.94852
vt 0.77667 0.98439
vt 0.80345 0.99477
vt 0.93368 0.62256
vt 0.88857 0.62542
vt 0.86852 0.63874
vt 0.84724 0.64777
vt 0.82568 0.65444
vt 0.80401 0.66008
vt 0.78267 0.66376
# 440 texture verticies
vn -0.35595 0.52479 0.77324
vn -0.51918 0.46158 0.71931
vn -0.40855 0.34529 0.84490
vn -0.25246 0.37967 0.89001
vn -0.59009 0.29511 0.75147
vn -0.42981 0.23509 0.87178
vn -0.28434 0.23126 0.93041
vn 0.41181 0.00507 -0.91125
vn 0.45606 0.12702 -0.88084
vn 0.52417 0.05685 -0.84971
vn 0.49491 -0.04817 -0.86761
vn 0.63297 -0.06189 -0.77170
vn 0.65109 0.08622 -0.75409
vn 0.56449 0.18461 -0.80453
vn -0.03501 -0.31694 0.94780
vn -0.24325 -0.32801 0.91282
vn -0.11687 -0.46401 0.87809
vn 0.05554 -0.47545 0.87799
vn 0.00544 -0.68936 0.72439
vn -0.25534 -0.65722 0.70913
vn -0.42869 -0.49650 0.75479
vn 0.71019 -0.05477 0.70188
vn 0.78982 0.14150 0.59680
vn 0.65461 0.12076 0.74626
vn 0.55993 -0.01478 0.82841
vn 0.47440 0.11384 0.87292
vn 0.58220 0.24188 0.77624
vn 0.71513 0.28786 0.63697
vn 0.08083 -0.13539 -0.98749
vn 0.05263 -0.08873 -0.99466
vn 0.10255 -0.06773 -0.99242
vn 0.13018 -0.09805 -0.98663
vn 0.05427 -0.02185 -0.99829
vn 0.11984 -0.00737 -0.99277
vn 0.14935 -0.04601 -0.98771
vn 0.09476 -0.02754 0.99512
vn 0.07200 -0.00399 0.99740
vn 0.06517 -0.02846 0.99747
vn 0.07976 -0.05213 0.99545
vn 0.05689 0.00327 0.99838
vn 0.05704 -0.02146 0.99814
vn 0.06762 -0.04495 0.99670
vn -0.28611 0.26380 -0.92117
vn -0.41705 0.21597 -0.88285
vn -0.41169 0.31576 -0.85487
vn -0.30444 0.35701 -0.88309
vn -0.54399 0.26508 -0.79612
vn -0.52367 0.36744 -0.76861
vn -0.37748 0.46476 -0.80094
vn -0.52306 -0.72724 -0.44444
vn -0.44301 -0.64958 -0.61789
vn -0.34796 -0.74723 -0.56618
vn -0.40390 -0.82381 -0.39774
vn -0.26532 -0.63933 -0.72170
vn -0.19933 -0.74388 -0.63790
vn -0.15525 -0.87399 -0.46048
vn 0.06211 -0.95920 -0.27583
vn -0.08410 -0.97883 -0.18661
vn 0.03116 -0.87128 -0.48979
vn -0.33937 -0.92240 -0.18441
vn -0.05271 -0.71527 -0.69686
vn 0.09144 -0.82101 -0.56354
vn 0.05545 -0.67720 -0.73371
vn -0.13385 -0.57096 -0.80999
vn 0.01770 -0.51555 -0.85668
vn 0.10100 -0.59830 -0.79488
vn 0.07209 -0.46795 -0.88081
vn -0.14806 -0.45144 -0.87993
vn -0.02963 -0.37665 -0.92588
vn 0.04909 -0.34001 -0.93914
vn 0.09694 -0.41350 -0.90533
vn 0.07768 -0.30985 -0.94761
vn -0.03495 -0.26639 -0.96323
vn 0.01905 -0.22510 -0.97415
vn 0.04683 -0.21976 -0.97443
vn 0.12616 -0.23889 -0.96282
vn 0.10060 -0.18152 -0.97823
vn -0.00623 -0.15904 -0.98725
vn 0.01412 -0.14339 -0.98957
vn -0.04844 -0.09784 -0.99402
vn -0.00904 -0.08584 -0.99627
vn -0.07034 -0.03791 -0.99680
vn -0.01256 -0.00272 -0.99992
vn -0.10425 0.05101 -0.99324
vn -0.01886 0.07403 -0.99708
vn 0.06988 0.07518 -0.99472
vn 0.14054 0.06399 -0.98801
vn 0.01308 0.16250 -0.98662
vn 0.08735 0.17831 -0.98009
vn 0.12957 0.14042 -0.98158
vn 0.15326 0.02820 -0.98778
vn 0.15235 0.07633 -0.98537
vn 0.10375 0.25053 -0.96253
vn 0.13483 0.24893 -0.95909
vn 0.18740 0.19858 -0.96200
vn 0.21356 0.05937 -0.97512
vn 0.25894 0.12438 -0.95785
vn 0.16323 0.32631 -0.93106
vn 0.22919 0.32239 -0.91844
vn 0.31420 0.25406 -0.91473
vn 0.34083 0.07987 -0.93673
vn 0.39539 0.18477 -0.89974
vn 0.30170 0.41739 -0.85718
vn 0.39539 0.40030 -0.82669
vn 0.49097 0.29829 -0.81852
vn 0.51249 0.50730 -0.69282
vn 0.62656 0.45679 -0.63148
vn 0.71820 0.29276 -0.63125
vn 0.78457 0.11719 -0.60886
vn 0.75297 0.52938 -0.39089
vn 0.86391 0.40716 -0.29643
vn 0.94219 0.15105 -0.29909
vn 0.82079 -0.07002 -0.56692
vn 0.96054 -0.09467 -0.26155
vn 0.92098 0.38854 0.02881
vn 0.97303 0.19372 0.12520
vn 0.98562 -0.09311 0.14102
vn 0.90539 0.13495 0.40255
vn 0.85278 -0.07650 0.51663
vn 0.82895 -0.25628 0.49715
vn 0.90767 -0.33437 0.25363
vn 0.92361 -0.32123 -0.20917
vn 0.85740 -0.47064 0.20825
vn 0.85070 -0.51547 -0.10298
vn 0.75697 -0.44674 -0.47688
vn 0.75011 -0.25419 -0.61052
vn 0.57359 -0.33772 -0.74628
vn 0.56144 -0.18405 -0.80679
vn 0.41881 -0.23922 -0.87600
vn 0.42469 -0.12529 -0.89663
vn 0.32531 -0.17212 -0.92981
vn 0.34283 -0.07267 -0.93658
vn 0.25839 -0.12027 -0.95852
vn 0.27667 -0.01456 -0.96085
vn 0.19228 -0.04569 -0.98027
vn 0.23467 -0.14041 -0.96188
vn 0.18705 -0.10650 -0.97656
vn 0.20630 -0.19457 -0.95895
vn 0.14472 -0.14795 -0.97835
vn 0.28293 -0.19623 -0.93885
vn 0.26566 -0.26925 -0.92570
vn 0.17700 -0.35379 -0.91842
vn 0.32741 -0.37754 -0.86618
vn 0.25529 -0.48362 -0.83722
vn 0.15245 -0.55859 -0.81531
vn 0.31379 -0.63376 -0.70702
vn 0.24022 -0.73217 -0.63735
vn 0.14991 -0.78187 -0.60515
vn 0.29719 -0.86942 -0.39469
vn 0.22570 -0.92720 -0.29893
vn 0.15683 -0.94082 -0.30044
vn 0.27834 -0.96020 -0.02351
vn 0.23262 -0.97089 0.05713
vn 0.13467 -0.98894 0.06211
vn 0.25455 -0.89970 0.35462
vn 0.20138 -0.88775 0.41393
vn 0.04310 -0.90408 0.42519
vn -0.11173 -0.98906 0.09633
vn -0.25444 -0.85087 0.45966
vn -0.42892 -0.89397 0.12975
vn -0.53865 -0.69214 0.48042
vn -0.64817 -0.73939 0.18214
vn -0.60837 -0.77326 -0.17875
vn -0.75835 -0.64060 0.12054
vn -0.75011 -0.64314 -0.15398
vn -0.62742 -0.62380 -0.46606
vn -0.49872 -0.56671 -0.65583
vn -0.79925 -0.55217 -0.23730
vn -0.71130 -0.51099 -0.48263
vn -0.54348 -0.45881 -0.70294
vn -0.33986 -0.50728 -0.79194
vn -0.38840 -0.39114 -0.83436
vn -0.72755 -0.40244 -0.55562
vn -0.59785 -0.33754 -0.72708
vn -0.41471 -0.28191 -0.86518
vn -0.21293 -0.32575 -0.92117
vn -0.24381 -0.21533 -0.94562
vn -0.59230 -0.22881 -0.77255
vn -0.45065 -0.16471 -0.87737
vn -0.26425 -0.12015 -0.95694
vn -0.08633 -0.16703 -0.98216
vn -0.11350 -0.08686 -0.98973
vn -0.42698 -0.07157 -0.90143
vn -0.29651 -0.02442 -0.95472
vn -0.15586 -0.01324 -0.98769
vn -0.28207 0.04111 -0.95851
vn -0.17722 0.05592 -0.98258
vn -0.28579 0.10056 -0.95300
vn -0.19576 0.12339 -0.97286
vn -0.08690 0.14270 -0.98594
vn -0.18593 0.21114 -0.95961
vn -0.08080 0.24405 -0.96639
vn 0.02879 0.26205 -0.96462
vn -0.05617 0.33859 -0.93925
vn 0.04787 0.36759 -0.92876
vn 0.11398 0.35534 -0.92776
vn 0.06401 0.46902 -0.88087
vn 0.13599 0.47373 -0.87011
vn 0.21758 0.45582 -0.86307
vn 0.19108 0.63064 -0.75218
vn 0.29755 0.63579 -0.71220
vn 0.40646 0.59023 -0.69744
vn 0.39758 0.79730 -0.45414
vn 0.51532 0.76545 -0.38540
vn 0.63518 0.67047 -0.38343
vn 0.57402 0.81850 -0.02370
vn 0.67867 0.73324 0.04204
vn 0.80473 0.59275 0.03245
vn 0.64952 0.64726 0.39897
vn 0.74940 0.53544 0.38949
vn 0.83796 0.37225 0.39907
vn 0.63152 0.43119 0.64441
vn 0.52900 0.52101 0.66985
vn 0.44458 0.37855 0.81182
vn 0.47347 0.28438 0.83364
vn 0.33862 0.25650 0.90529
vn 0.36354 0.15167 0.91915
vn 0.28356 0.12971 0.95014
vn 0.30687 0.06569 0.94948
vn 0.38524 -0.02350 0.92252
vn 0.28096 -0.00586 0.95970
vn 0.34274 -0.10945 0.93303
vn 0.42723 -0.19441 0.88300
vn 0.52062 -0.14657 0.84111
vn 0.54048 -0.28545 0.79145
vn 0.67290 -0.21462 0.70792
vn 0.71356 -0.39485 0.57874
vn 0.52357 -0.36430 0.77017
vn 0.61082 -0.46168 0.64324
vn 0.75249 -0.58364 0.30517
vn 0.56947 -0.53808 0.62143
vn 0.62277 -0.67728 0.39172
vn 0.65463 -0.75550 -0.02613
vn 0.76626 -0.61715 -0.17881
vn 0.59700 -0.67587 -0.43219
vn 0.64248 -0.52969 -0.55377
vn 0.44101 -0.54809 -0.71071
vn 0.47872 -0.39000 -0.78659
vn 0.35946 -0.27478 -0.89178
vn 0.44295 -0.79515 -0.41417
vn 0.51597 -0.85650 -0.01353
vn 0.39141 -0.92009 0.01521
vn 0.51823 -0.79293 0.32047
vn 0.41820 -0.79915 0.43181
vn 0.34828 -0.85559 0.38297
vn 0.39141 -0.66899 0.63187
vn 0.35688 -0.64912 0.67178
vn 0.28036 -0.69910 0.65777
vn 0.31118 -0.49112 0.81362
vn 0.24201 -0.46550 0.85132
vn 0.13090 -0.46904 0.87342
vn 0.16894 -0.70460 0.68920
vn 0.16944 -0.31816 0.93277
vn 0.03015 -0.29743 0.95427
vn 0.11504 -0.20212 0.97258
vn -0.01650 -0.20430 0.97877
vn -0.13768 -0.22765 0.96396
vn -0.30084 -0.27598 0.91287
vn -0.07478 -0.15281 0.98542
vn -0.17822 -0.17715 0.96791
vn -0.35182 -0.23268 0.90669
vn -0.47951 -0.37255 0.79453
vn -0.59182 -0.34162 0.73010
vn -0.22332 -0.14646 0.96368
vn -0.38104 -0.17364 0.90811
vn -0.61636 -0.25244 0.74591
vn -0.74955 -0.41326 0.51710
vn -0.81749 -0.35384 0.45444
vn -0.45142 -0.12188 0.88395
vn -0.62560 -0.15483 0.76462
vn -0.84287 -0.23660 0.48331
vn -0.90650 -0.38323 0.17718
vn -0.95037 -0.29611 0.09548
vn -0.67683 -0.11022 0.72785
vn -0.84668 -0.13237 0.51537
vn -0.97414 -0.18222 0.13363
vn -0.93666 -0.28445 -0.20433
vn -0.93846 -0.19819 -0.28287
vn -0.88825 -0.06301 0.45503
vn -0.97966 -0.07015 0.18799
vn -0.96391 -0.09287 -0.24950
vn -0.82508 -0.15906 -0.54217
vn -0.79542 -0.07783 -0.60104
vn -0.99268 0.02168 0.11885
vn -0.97836 0.04006 -0.20300
vn -0.81273 0.02647 -0.58204
vn -0.61563 -0.02128 -0.78775
vn -0.60705 0.04639 -0.79331
vn -0.93690 0.16850 -0.30630
vn -0.79722 0.15004 -0.58475
vn -0.59294 0.14482 -0.79212
vn -0.43106 0.08000 -0.89877
vn -0.40836 0.15176 -0.90012
vn -0.74366 0.31031 -0.59218
vn -0.91785 0.35054 -0.18619
vn -0.79638 0.55397 -0.24269
vn -0.61475 0.51554 -0.59691
vn -0.58446 0.77477 -0.24111
vn -0.43078 0.68798 -0.58405
vn -0.22381 0.58719 -0.77790
vn -0.23293 0.76524 -0.60012
vn -0.29254 0.93157 -0.21586
vn -0.07801 0.84340 -0.53159
vn -0.04170 0.97230 -0.22997
vn -0.51906 0.83858 0.16542
vn -0.30501 0.91637 0.25929
vn -0.05087 0.96958 0.23941
vn 0.13239 0.98344 -0.12375
vn 0.18620 0.95370 0.23618
vn -0.22327 0.80292 0.55270
vn -0.05146 0.78386 0.61880
vn 0.15184 0.78812 0.59650
vn 0.31960 0.88952 0.32652
vn 0.31405 0.75555 0.57490
vn -0.01060 0.60726 0.79443
vn 0.10546 0.55616 0.82436
vn 0.24660 0.54292 0.80276
vn 0.38345 0.64437 0.66163
vn 0.32361 0.50163 0.80228
vn 0.10087 0.39613 0.91264
vn 0.16959 0.34584 0.92284
vn 0.25669 0.33640 0.90606
vn 0.37254 0.44135 0.81635
vn 0.30514 0.28994 0.90710
vn 0.13996 0.22657 0.96389
vn 0.17475 0.19581 0.96495
vn 0.24029 0.17699 0.95443
vn 0.14156 0.11654 0.98305
vn 0.17285 0.07954 0.98173
vn 0.22995 0.04668 0.97208
vn 0.14068 0.01375 0.98996
vn 0.18058 -0.01732 0.98341
vn 0.23486 -0.08088 0.96866
vn 0.14159 -0.06572 0.98774
vn 0.19532 -0.12845 0.97229
vn 0.25517 -0.19107 0.94783
vn 0.32720 -0.18900 0.92586
vn 0.33786 -0.27935 0.89878
vn 0.41710 -0.27228 0.86712
vn 0.44174 -0.39656 0.80474
vn 0.32477 -0.32689 0.88751
vn 0.38424 -0.43058 0.81667
vn 0.45184 -0.60134 0.65896
vn 0.34226 -0.46331 0.81744
vn 0.27497 -0.30488 0.91183
vn 0.24113 -0.30644 0.92084
vn 0.20528 -0.20224 0.95758
vn 0.15797 -0.17464 0.97188
vn 0.14625 -0.12480 0.98134
vn 0.11298 -0.10841 0.98766
vn 0.05144 -0.11634 0.99188
vn 0.07999 -0.06409 0.99473
vn 0.02679 -0.06718 0.99738
vn -0.08384 -0.10164 0.99128
vn 0.00452 -0.04085 0.99916
vn -0.08488 -0.04846 0.99521
vn -0.24318 -0.08007 0.96667
vn -0.12092 -0.01068 0.99261
vn -0.24779 -0.01581 0.96868
vn -0.44431 -0.05201 0.89436
vn -0.28283 0.02255 0.95891
vn -0.42534 0.01967 0.90482
vn -0.66212 -0.00845 0.74935
vn -0.47393 0.08507 0.87644
vn -0.63446 0.09372 0.76725
vn -0.85590 0.06153 0.51347
vn -0.66681 0.16879 0.72586
vn -0.83585 0.18713 0.51608
vn -0.96532 0.19616 0.17226
vn -0.79565 0.32615 0.51046
vn -0.88912 0.41655 0.18961
vn -0.68956 0.50346 0.52062
vn -0.73660 0.64558 0.20161
vn -0.45665 0.69577 0.55441
vn -0.18518 0.58046 0.79295
vn -0.14211 0.39163 0.90908
vn -0.02536 0.39044 0.92028
vn -0.13991 0.24710 0.95884
vn -0.03789 0.22268 0.97416
vn 0.05491 0.22677 0.97240
vn -0.02732 0.14056 0.98970
vn 0.02591 0.11936 0.99251
vn 0.08625 0.12043 0.98897
vn 0.02725 0.06720 0.99737
vn 0.05869 0.04804 0.99712
vn 0.09481 0.03998 0.99469
vn 0.02509 0.01758 0.99953
vn -0.02072 -0.00050 0.99979
vn 0.04589 -0.02039 0.99874
vn -0.02821 0.03101 0.99912
vn -0.03640 0.07137 0.99679
vn -0.12116 0.13535 0.98336
vn -0.12584 0.08458 0.98844
vn -0.11716 0.03737 0.99241
vn -0.26293 0.08932 0.96067
vn -0.24968 0.15651 0.95560
vn -0.44184 0.15651 0.88334
vn 0.06462 -0.04176 0.99704
vn 0.09822 -0.07281 0.99250
vn 0.10634 -0.07947 0.99115
vn 0.16213 -0.13435 0.97758
vn 0.24989 -0.22568 0.94161
vn 0.47863 0.64452 0.59624
vn 0.56019 0.76101 0.32720
vn 0.44527 0.83266 0.32927
vn 0.46643 0.87981 -0.09155
vn 0.32125 0.94139 -0.10285
vn 0.26678 0.80863 -0.52435
vn 0.11723 0.83776 -0.53331
vn 0.08944 0.61534 -0.78317
vn -0.04786 0.62311 -0.78067
vn -0.03407 0.45236 -0.89118
vn -0.17692 0.41617 -0.89191
vn -0.17936 0.27581 -0.94433
vn -0.29379 0.17855 -0.93905
vn -0.44274 -0.00238 -0.89665
vn -0.62216 -0.11864 -0.77385
vn -0.78743 -0.26919 -0.55452
vn -0.87885 -0.41936 -0.22749
vn -0.84550 -0.51256 0.14970
vn -0.69346 -0.52864 0.48955
# 421 normals
usemtl zen_stones_Colored_001
f  10/1/1 11/2/2 1/3/3 9/4/4
f  12/5/5 13/6/6 1/3/3 11/2/2
f  14/7/7 9/4/4 1/3/3 13/6/6
f  16/8/8 17/9/9 2/10/10 15/11/11
f  19/12/12 15/13/11 2/14/10 18/15/13
f  20/16/14 18/17/13 2/10/10 17/9/9
f  22/18/15 23/19/16 3/20/17 21/21/18
f  25/22/19 21/21/18 3/20/17 24/23/20
f  26/24/21 24/23/20 3/20/17 23/19/16
f  28/25/22 29/26/23 4/27/24 27/28/25
f  31/29/26 27/28/25 4/27/24 30/30/27
f  32/31/28 30/30/27 4/27/24 29/26/23
f  34/32/29 35/33/30 5/34/31 33/35/32
f  36/36/33 37/37/34 5/34/31 35/33/30
f  38/38/35 33/35/32 5/34/31 37/37/34
f  40/39/36 41/40/37 6/41/38 39/42/39
f  42/43/40 43/44/41 6/41/38 41/40/37
f  44/45/42 39/42/39 6/41/38 43/44/41
f  46/46/43 47/47/44 7/48/45 45/49/46
f  48/50/47 49/51/48 7/48/45 47/47/44
f  50/52/49 45/49/46 7/48/45 49/51/48
f  52/53/50 53/54/51 8/55/52 51/56/53
f  54/57/54 55/58/55 8/55/52 53/54/51
f  56/59/56 51/56/53 8/55/52 55/58/55
f  58/60/57 59/61/58 56/59/56 57/62/59
f  60/63/60 51/56/53 56/59/56 59/61/58
f  61/64/61 57/62/59 56/59/56 55/58/55
f  63/65/62 57/62/59 61/64/61 62/66/63
f  54/57/54 64/67/64 61/64/61 55/58/55
f  65/68/65 62/66/63 61/64/61 64/67/64
f  67/69/66 62/66/63 65/68/65 66/70/67
f  68/71/68 69/72/69 65/68/65 64/67/64
f  70/73/70 66/70/67 65/68/65 69/72/69
f  72/74/71 66/70/67 70/73/70 71/75/72
f  73/76/73 74/77/74 70/73/70 69/72/69
f  75/78/75 71/75/72 70/73/70 74/77/74
f  77/79/76 71/75/72 75/78/75 76/80/77
f  78/81/78 79/82/79 75/78/75 74/77/74
f  34/32/29 76/80/77 75/78/75 79/82/79
f  80/83/80 81/84/81 79/82/79 78/81/78
f  35/33/30 34/32/29 79/82/79 81/84/81
f  82/85/82 83/86/83 81/84/81 80/83/80
f  36/36/33 35/33/30 81/84/81 83/86/83
f  84/87/84 85/88/85 83/86/83 82/85/82
f  86/89/86 36/36/33 83/86/83 85/88/85
f  37/37/34 36/36/33 86/89/86 87/90/87
f  88/91/88 89/92/89 86/89/86 85/88/85
f  90/93/90 87/90/87 86/89/86 89/92/89
f  92/94/91 87/90/87 90/93/90 91/95/92
f  93/96/93 94/97/94 90/93/90 89/92/89
f  95/98/95 91/95/92 90/93/90 94/97/94
f  97/99/96 91/95/92 95/98/95 96/100/97
f  98/101/98 99/102/99 95/103/95 94/104/94
f  100/105/100 96/106/97 95/103/95 99/102/99
f  102/107/101 96/106/97 100/105/100 101/108/102
f  103/109/103 104/110/104 100/105/100 99/102/99
f  105/111/105 101/108/102 100/105/100 104/110/104
f  17/9/9 101/108/102 105/111/105 20/16/14
f  106/112/106 107/113/107 105/111/105 104/110/104
f  108/114/108 20/16/14 105/111/105 107/113/107
f  18/17/13 20/16/14 108/114/108 109/115/109
f  110/116/110 111/117/111 108/114/108 107/113/107
f  112/118/112 109/115/109 108/114/108 111/117/111
f  114/119/113 109/120/109 112/121/112 113/122/114
f  115/123/115 116/124/116 112/118/112 111/117/111
f  117/125/117 113/122/114 112/121/112 116/124/116
f  118/126/118 119/127/119 117/125/117 116/124/116
f  120/128/120 121/129/121 117/125/117 119/127/119
f  122/130/122 113/122/114 117/125/117 121/129/121
f  123/131/123 124/132/124 122/130/122 121/129/121
f  125/133/125 126/134/126 122/130/122 124/132/124
f  114/119/113 113/122/114 122/130/122 126/134/126
f  127/135/127 128/136/128 126/134/126 125/133/125
f  19/12/12 114/119/113 126/134/126 128/136/128
f  129/137/129 130/138/130 128/136/128 127/135/127
f  15/13/11 19/12/12 128/136/128 130/138/130
f  131/139/131 132/140/132 130/138/130 129/137/129
f  16/141/8 15/13/11 130/138/130 132/140/132
f  133/142/133 134/143/134 132/140/132 131/139/131
f  102/144/101 16/141/8 132/140/132 134/143/134
f  135/145/135 97/99/96 134/143/134 133/142/133
f  96/100/97 102/144/101 134/143/134 97/99/96
f  136/146/136 137/147/137 135/145/135 133/142/133
f  38/38/35 92/94/91 135/145/135 137/147/137
f  91/95/92 97/99/96 135/145/135 92/94/91
f  138/148/138 139/149/139 137/147/137 136/146/136
f  33/35/32 38/38/35 137/147/137 139/149/139
f  77/79/76 76/80/77 139/149/139 138/148/138
f  34/32/29 33/35/32 139/149/139 76/80/77
f  140/150/140 141/151/141 138/148/138 136/146/136
f  142/152/142 77/79/76 138/148/138 141/151/141
f  143/153/143 144/154/144 142/152/142 141/151/141
f  145/155/145 72/74/71 142/152/142 144/154/144
f  71/75/72 77/79/76 142/152/142 72/74/71
f  146/156/146 147/157/147 145/155/145 144/154/144
f  148/158/148 67/69/66 145/155/145 147/157/147
f  66/70/67 72/74/71 145/155/145 67/69/66
f  149/159/149 150/160/150 148/158/148 147/157/147
f  151/161/151 63/65/62 148/158/148 150/160/150
f  62/66/63 67/69/66 148/158/148 63/65/62
f  152/162/152 153/163/153 151/161/151 150/160/150
f  154/164/154 58/60/57 151/161/151 153/163/153
f  57/62/59 63/65/62 151/161/151 58/60/57
f  155/165/155 156/166/156 154/164/154 153/163/153
f  157/167/157 158/168/158 154/164/154 156/166/156
f  59/61/58 58/60/57 154/164/154 158/168/158
f  159/169/159 160/170/160 158/168/158 157/167/157
f  60/63/60 59/61/58 158/168/158 160/170/160
f  161/171/161 162/172/162 160/170/160 159/169/159
f  163/173/163 60/63/60 160/170/160 162/172/162
f  51/56/53 60/63/60 163/173/163 52/53/50
f  164/174/164 165/175/165 163/173/163 162/172/162
f  166/176/166 52/53/50 163/173/163 165/175/165
f  53/54/51 52/53/50 166/176/166 167/177/167
f  168/178/168 169/179/169 166/176/166 165/175/165
f  170/180/170 167/177/167 166/176/166 169/179/169
f  172/181/171 167/177/167 170/180/170 171/182/172
f  173/183/173 174/184/174 170/180/170 169/179/169
f  175/185/175 171/182/172 170/180/170 174/184/174
f  177/186/176 171/182/172 175/185/175 176/187/177
f  178/188/178 179/189/179 175/185/175 174/184/174
f  180/190/180 176/187/177 175/185/175 179/189/179
f  182/191/181 176/187/177 180/190/180 181/192/182
f  183/193/183 184/194/184 180/190/180 179/189/179
f  185/195/185 181/192/182 180/190/180 184/194/184
f  80/83/80 181/192/182 185/195/185 82/85/82
f  186/196/186 187/197/187 185/195/185 184/194/184
f  84/87/84 82/85/82 185/195/185 187/197/187
f  188/198/188 189/199/189 187/197/187 186/196/186
f  190/200/190 84/87/84 187/197/187 189/199/189
f  85/88/85 84/87/84 190/200/190 88/91/88
f  191/201/191 192/202/192 190/200/190 189/199/189
f  193/203/193 88/91/88 190/200/190 192/202/192
f  89/92/89 88/91/88 193/203/193 93/96/93
f  194/204/194 195/205/195 193/206/193 192/207/192
f  196/208/196 93/209/93 193/206/193 195/205/195
f  94/104/94 93/209/93 196/208/196 98/101/98
f  197/210/197 198/211/198 196/208/196 195/205/195
f  199/212/199 98/101/98 196/208/196 198/211/198
f  99/102/99 98/101/98 199/212/199 103/109/103
f  200/213/200 201/214/201 199/212/199 198/211/198
f  202/215/202 103/109/103 199/212/199 201/214/201
f  104/110/104 103/109/103 202/215/202 106/112/106
f  203/216/203 204/217/204 202/215/202 201/214/201
f  205/218/205 106/112/106 202/215/202 204/217/204
f  107/113/107 106/112/106 205/218/205 110/116/110
f  206/219/206 207/220/207 205/218/205 204/217/204
f  208/221/208 110/116/110 205/218/205 207/220/207
f  111/117/111 110/116/110 208/221/208 115/123/115
f  209/222/209 210/223/210 208/221/208 207/220/207
f  211/224/211 115/123/115 208/221/208 210/223/210
f  116/124/116 115/123/115 211/224/211 118/126/118
f  212/225/212 32/31/28 211/224/211 210/223/210
f  29/26/23 118/126/118 211/224/211 32/31/28
f  209/222/209 213/226/213 212/225/212 210/223/210
f  214/227/214 215/228/215 212/225/212 213/226/213
f  30/30/27 32/31/28 212/225/212 215/228/215
f  216/229/216 217/230/217 215/228/215 214/227/214
f  31/29/26 30/30/27 215/228/215 217/230/217
f  218/231/218 219/232/219 217/230/217 216/229/216
f  220/233/220 31/29/26 217/230/217 219/232/219
f  221/234/221 222/235/222 220/233/220 219/232/219
f  223/236/223 224/237/224 220/233/220 222/235/222
f  27/28/25 31/29/26 220/233/220 224/237/224
f  225/238/225 226/239/226 224/237/224 223/236/223
f  28/25/22 27/28/25 224/237/224 226/239/226
f  227/240/227 120/128/120 226/239/226 225/238/225
f  119/127/119 28/25/22 226/239/226 120/128/120
f  228/241/228 229/242/229 227/240/227 225/238/225
f  230/243/230 123/131/123 227/240/227 229/242/229
f  121/129/121 120/128/120 227/240/227 123/131/123
f  231/244/231 232/245/232 230/243/230 229/242/229
f  233/246/233 234/247/234 230/243/230 232/245/232
f  124/132/124 123/131/123 230/243/230 234/247/234
f  235/248/235 236/249/236 234/247/234 233/246/233
f  125/133/125 124/132/124 234/247/234 236/249/236
f  237/250/237 238/251/238 236/249/236 235/248/235
f  127/135/127 125/133/125 236/249/236 238/251/238
f  143/153/143 239/252/239 238/251/238 237/250/237
f  129/137/129 127/135/127 238/251/238 239/252/239
f  141/151/141 140/150/140 239/252/239 143/153/143
f  131/139/131 129/137/129 239/252/239 140/150/140
f  240/253/240 146/156/146 237/250/237 235/248/235
f  144/154/144 143/153/143 237/250/237 146/156/146
f  233/246/233 241/254/241 240/253/240 235/248/235
f  242/255/242 149/159/149 240/253/240 241/254/241
f  147/157/147 146/156/146 240/253/240 149/159/149
f  243/256/243 244/257/244 242/255/242 241/254/241
f  245/258/245 152/162/152 242/255/242 244/257/244
f  150/160/150 149/159/149 242/255/242 152/162/152
f  246/259/246 247/260/247 245/258/245 244/257/244
f  248/261/248 155/165/155 245/258/245 247/260/247
f  153/163/153 152/162/152 245/258/245 155/165/155
f  249/262/249 250/263/250 248/261/248 247/260/247
f  251/264/251 252/265/252 248/261/248 250/263/250
f  156/166/156 155/165/155 248/261/248 252/265/252
f  21/21/18 25/22/19 252/265/252 251/264/251
f  157/167/157 156/166/156 252/265/252 25/22/19
f  253/266/253 254/267/254 251/264/251 250/263/250
f  22/18/15 21/21/18 251/264/251 254/267/254
f  255/268/255 256/269/256 254/267/254 253/266/253
f  257/270/257 22/18/15 254/267/254 256/269/256
f  23/19/16 22/18/15 257/270/257 258/271/258
f  259/272/259 260/273/260 257/270/257 256/269/256
f  261/274/261 258/271/258 257/270/257 260/273/260
f  263/275/262 258/271/258 261/274/261 262/276/263
f  264/277/264 265/278/265 261/274/261 260/273/260
f  266/279/266 262/276/263 261/274/261 265/278/265
f  268/280/267 262/276/263 266/279/266 267/281/268
f  269/282/269 270/283/270 266/279/266 265/278/265
f  271/284/271 267/281/268 266/279/266 270/283/270
f  273/285/272 267/281/268 271/284/271 272/286/273
f  274/287/274 275/288/275 271/284/271 270/283/270
f  276/289/276 272/286/273 271/284/271 275/288/275
f  278/290/277 272/286/273 276/289/276 277/291/278
f  279/292/279 280/293/280 276/289/276 275/288/275
f  281/294/281 277/291/278 276/289/276 280/293/280
f  283/295/282 277/291/278 281/294/281 282/296/283
f  284/297/284 285/298/285 281/294/281 280/293/280
f  286/299/286 282/296/283 281/294/281 285/298/285
f  288/300/287 282/296/283 286/299/286 287/301/288
f  289/302/289 290/303/290 286/299/286 285/298/285
f  291/304/291 287/301/288 286/299/286 290/303/290
f  293/305/292 287/301/288 291/304/291 292/306/293
f  294/307/294 48/50/47 291/304/291 290/303/290
f  47/47/44 292/306/293 291/304/291 48/50/47
f  289/302/289 295/308/295 294/307/294 290/303/290
f  296/309/296 297/310/297 294/307/294 295/308/295
f  49/51/48 48/50/47 294/307/294 297/310/297
f  298/311/298 299/312/299 297/310/297 296/309/296
f  50/52/49 49/51/48 297/310/297 299/312/299
f  301/313/300 50/314/49 299/315/299 300/316/301
f  302/317/302 300/316/301 299/315/299 298/311/298
f  304/318/303 300/316/301 302/317/302 303/319/304
f  305/320/305 306/321/306 302/317/302 298/311/298
f  307/322/307 303/319/304 302/317/302 306/321/306
f  309/323/308 303/319/304 307/322/307 308/324/309
f  310/325/310 311/326/311 307/322/307 306/321/306
f  312/327/312 308/324/309 307/322/307 311/326/311
f  314/328/313 308/324/309 312/327/312 313/329/314
f  315/330/315 316/331/316 312/327/312 311/326/311
f  317/332/317 313/329/314 312/327/312 316/331/316
f  319/333/318 313/329/314 317/332/317 318/334/319
f  320/335/320 321/336/321 317/332/317 316/331/316
f  322/337/322 318/334/319 317/332/317 321/336/321
f  324/338/323 318/334/319 322/337/322 323/339/324
f  325/340/325 326/341/326 322/337/322 321/336/321
f  327/342/327 323/339/324 322/337/322 326/341/326
f  216/229/216 323/339/324 327/342/327 218/231/218
f  328/343/328 329/344/329 327/342/327 326/341/326
f  330/345/330 218/231/218 327/342/327 329/344/329
f  219/232/219 218/231/218 330/345/330 221/234/221
f  331/346/331 332/347/332 330/345/330 329/344/329
f  333/348/333 221/234/221 330/345/330 332/347/332
f  334/349/334 335/350/335 333/348/333 332/347/332
f  336/351/336 337/352/337 333/348/333 335/350/335
f  222/235/222 221/234/221 333/348/333 337/352/337
f  338/353/338 339/354/339 337/352/337 336/351/336
f  223/236/223 222/235/222 337/352/337 339/354/339
f  340/355/340 228/241/228 339/354/339 338/353/338
f  225/238/225 223/236/223 339/354/339 228/241/228
f  341/356/341 342/357/342 340/355/340 338/353/338
f  343/358/343 231/244/231 340/355/340 342/357/342
f  229/242/229 228/241/228 340/355/340 231/244/231
f  344/359/344 246/259/246 343/358/343 342/357/342
f  244/257/244 243/256/243 343/358/343 246/259/246
f  232/245/232 231/244/231 343/358/343 243/256/243
f  341/356/341 345/360/345 344/359/344 342/357/342
f  346/361/346 249/262/249 344/359/344 345/360/345
f  247/260/247 246/259/246 344/359/344 249/262/249
f  347/362/347 348/363/348 346/361/346 345/360/345
f  255/268/255 253/266/253 346/361/346 348/363/348
f  250/263/250 249/262/249 346/361/346 253/266/253
f  349/364/349 350/365/350 348/363/348 347/362/347
f  351/366/351 255/268/255 348/363/348 350/365/350
f  352/367/352 353/368/353 351/366/351 350/365/350
f  354/369/354 259/272/259 351/366/351 353/368/353
f  256/269/256 255/268/255 351/366/351 259/272/259
f  260/273/260 259/272/259 354/369/354 264/277/264
f  355/370/355 356/371/356 354/369/354 353/368/353
f  357/372/357 264/277/264 354/369/354 356/371/356
f  265/278/265 264/277/264 357/372/357 269/282/269
f  358/373/358 359/374/359 357/372/357 356/371/356
f  360/375/360 269/282/269 357/372/357 359/374/359
f  270/283/270 269/282/269 360/375/360 274/287/274
f  361/376/361 362/377/362 360/375/360 359/374/359
f  363/378/363 274/287/274 360/375/360 362/377/362
f  275/288/275 274/287/274 363/378/363 279/292/279
f  364/379/364 365/380/365 363/378/363 362/377/362
f  366/381/366 279/292/279 363/378/363 365/380/365
f  280/293/280 279/292/279 366/381/366 284/297/284
f  367/382/367 368/383/368 366/381/366 365/380/365
f  369/384/369 284/297/284 366/381/366 368/383/368
f  285/298/285 284/297/284 369/384/369 289/302/289
f  370/385/370 371/386/371 369/384/369 368/383/368
f  295/308/295 289/302/289 369/384/369 371/386/371
f  372/387/372 373/388/373 371/386/371 370/385/370
f  296/309/296 295/308/295 371/386/371 373/388/373
f  374/389/374 305/320/305 373/388/373 372/387/372
f  298/311/298 296/309/296 373/388/373 305/320/305
f  306/321/306 305/320/305 374/389/374 310/325/310
f  11/2/2 10/1/1 374/389/374 372/387/372
f  375/390/375 310/325/310 374/389/374 10/1/1
f  311/326/311 310/325/310 375/390/375 315/330/315
f  9/4/4 376/391/376 375/390/375 10/1/1
f  377/392/377 315/330/315 375/390/375 376/391/376
f  316/331/316 315/330/315 377/392/377 320/335/320
f  378/393/378 379/394/379 377/392/377 376/391/376
f  380/395/380 320/335/320 377/392/377 379/394/379
f  321/336/321 320/335/320 380/395/380 325/340/325
f  381/396/381 382/397/382 380/395/380 379/394/379
f  383/398/383 325/340/325 380/395/380 382/397/382
f  326/341/326 325/340/325 383/398/383 328/343/328
f  384/399/384 385/400/385 383/398/383 382/397/382
f  386/401/386 328/343/328 383/398/383 385/400/385
f  329/344/329 328/343/328 386/401/386 331/346/331
f  42/43/40 41/40/37 386/401/386 385/400/385
f  40/39/36 331/346/331 386/401/386 41/40/37
f  387/402/387 42/43/40 385/400/385 384/399/384
f  389/403/388 390/404/389 387/402/387 388/405/390
f  43/44/41 42/43/40 387/402/387 390/404/389
f  391/406/391 388/405/390 387/402/387 384/399/384
f  382/397/382 381/396/381 391/406/391 384/399/384
f  392/407/392 393/408/393 391/406/391 381/396/381
f  394/409/394 388/405/390 391/406/391 393/408/393
f  359/374/359 358/373/358 394/409/394 361/376/361
f  389/403/388 388/405/390 394/409/394 358/373/358
f  395/410/395 361/376/361 394/409/394 393/408/393
f  362/377/362 361/376/361 395/410/395 364/379/364
f  392/407/392 396/411/396 395/410/395 393/408/393
f  397/412/397 364/379/364 395/410/395 396/411/396
f  365/380/365 364/379/364 397/412/397 367/382/367
f  14/7/7 13/6/6 397/412/397 396/411/396
f  12/5/5 367/382/367 397/412/397 13/6/6
f  378/393/378 14/7/7 396/411/396 392/407/392
f  379/394/379 378/393/378 392/407/392 381/396/381
f  355/370/355 398/413/398 390/404/389 389/403/388
f  44/45/42 43/44/41 390/404/389 398/413/398
f  353/368/353 352/367/352 398/413/398 355/370/355
f  399/414/399 44/45/42 398/413/398 352/367/352
f  39/42/39 44/45/42 399/414/399 400/415/400
f  350/365/350 349/364/349 399/414/399 352/367/352
f  401/416/401 400/415/400 399/414/399 349/364/349
f  334/349/334 400/415/400 401/416/401 335/350/335
f  347/362/347 402/417/402 401/416/401 349/364/349
f  336/351/336 335/350/335 401/416/401 402/417/402
f  345/360/345 341/356/341 402/417/402 347/362/347
f  338/353/338 336/351/336 402/417/402 341/356/341
f  40/39/36 39/42/39 400/415/400 334/349/334
f  356/371/356 355/370/355 389/403/388 358/373/358
f  9/4/4 14/7/7 378/393/378 376/391/376
f  12/5/5 11/2/2 372/387/372 370/385/370
f  367/382/367 12/5/5 370/385/370 368/383/368
f  331/346/331 40/39/36 334/349/334 332/347/332
f  213/226/213 403/418/403 324/338/323 214/227/214
f  319/333/318 318/334/319 324/338/323 403/418/403
f  216/229/216 214/227/214 324/338/323 323/339/324
f  209/222/209 404/419/404 403/418/403 213/226/213
f  405/420/405 319/333/318 403/418/403 404/419/404
f  206/219/206 406/421/406 405/420/405 404/419/404
f  407/422/407 314/328/313 405/420/405 406/421/406
f  313/329/314 319/333/318 405/420/405 314/328/313
f  203/216/203 408/423/408 407/422/407 406/421/406
f  409/424/409 309/323/308 407/422/407 408/423/408
f  308/324/309 314/328/313 407/422/407 309/323/308
f  200/213/200 410/425/410 409/424/409 408/423/408
f  411/426/411 304/318/303 409/424/409 410/425/410
f  303/319/304 309/323/308 409/424/409 304/318/303
f  197/210/197 412/427/412 411/426/411 410/425/410
f  413/428/413 301/313/300 411/426/411 412/427/412
f  300/316/301 304/318/303 411/426/411 301/313/300
f  194/204/194 414/429/414 413/428/413 412/427/412
f  46/430/43 45/431/46 413/428/413 414/429/414
f  50/314/49 301/313/300 413/428/413 45/431/46
f  192/207/192 191/432/191 414/429/414 194/204/194
f  415/433/415 46/430/43 414/429/414 191/432/191
f  189/199/189 188/198/188 415/434/415 191/201/191
f  293/305/292 292/306/293 415/434/415 188/198/188
f  47/47/44 46/46/43 415/434/415 292/306/293
f  195/205/195 194/204/194 412/427/412 197/210/197
f  198/211/198 197/210/197 410/425/410 200/213/200
f  201/214/201 200/213/200 408/423/408 203/216/203
f  204/217/204 203/216/203 406/421/406 206/219/206
f  207/220/207 206/219/206 404/419/404 209/222/209
f  186/196/186 416/435/416 293/305/292 188/198/188
f  288/300/287 287/301/288 293/305/292 416/435/416
f  184/194/184 183/193/183 416/435/416 186/196/186
f  417/436/417 288/300/287 416/435/416 183/193/183
f  179/189/179 178/188/178 417/436/417 183/193/183
f  418/437/418 283/295/282 417/436/417 178/188/178
f  282/296/283 288/300/287 417/436/417 283/295/282
f  174/184/174 173/183/173 418/437/418 178/188/178
f  419/438/419 278/290/277 418/437/418 173/183/173
f  277/291/278 283/295/282 418/437/418 278/290/277
f  169/179/169 168/178/168 419/438/419 173/183/173
f  420/439/420 273/285/272 419/438/419 168/178/168
f  272/286/273 278/290/277 419/438/419 273/285/272
f  165/175/165 164/174/164 420/439/420 168/178/168
f  421/440/421 268/280/267 420/439/420 164/174/164
f  267/281/268 273/285/272 420/439/420 268/280/267
f  162/172/162 161/171/161 421/440/421 164/174/164
f  26/24/21 263/275/262 421/440/421 161/171/161
f  262/276/263 268/280/267 421/440/421 263/275/262
f  23/19/16 258/271/258 263/275/262 26/24/21
f  233/246/233 232/245/232 243/256/243 241/254/241
f  74/77/74 73/76/73 182/191/181 78/81/78
f  177/186/176 176/187/177 182/191/181 73/76/73
f  80/83/80 78/81/78 182/191/181 181/192/182
f  69/72/69 68/71/68 177/186/176 73/76/73
f  172/181/171 171/182/172 177/186/176 68/71/68
f  64/67/64 54/57/54 172/181/171 68/71/68
f  53/54/51 167/177/167 172/181/171 54/57/54
f  24/23/20 26/24/21 161/171/161 159/169/159
f  25/22/19 24/23/20 159/169/159 157/167/157
f  133/142/133 131/139/131 140/150/140 136/146/136
f  29/26/23 28/25/22 119/127/119 118/126/118
f  18/15/13 109/120/109 114/119/113 19/12/12
f  17/9/9 16/8/8 102/107/101 101/108/102
f  37/37/34 87/90/87 92/94/91 38/38/35
